<?xml version="1.0" encoding="utf-8"?>
<!-- Generator: Adobe Illustrator 27.5.0, SVG Export Plug-In . SVG Version: 6.00 Build 0)  -->
<svg version="1.1" id="_x3C_Layer_x3E_" xmlns="http://www.w3.org/2000/svg" xmlns:xlink="http://www.w3.org/1999/xlink" x="0px"
	 y="0px" viewBox="0 0 2745 1830" style="enable-background:new 0 0 2745 1830;" xml:space="preserve">
<g>
	<rect style="fill:#E5F3FE;" width="2745" height="1830"/>
	<rect style="fill:#A7C0D1;" width="1372.5" height="1830"/>
</g>
<g>
	<g>
		<path style="fill:#FFFFFF;" d="M1085.556,1602.408V1830H511.821v-282.491c0-91.896,61-178.24,164.121-232.378l30.774-16.168
			h209.627l36.081,32.181C1038.555,1407.941,1085.556,1503.68,1085.556,1602.408z"/>
		<path d="M516.396,1547.509c0-89.853,60.451-175.19,161.65-228.324l29.798-15.646h206.76l34.769,31.019
			c84.851,75.643,131.607,170.771,131.607,267.852V1830h9.15v-227.592c0-99.702-47.823-197.272-134.657-274.682l-36.082-32.18
			c-0.853-0.763-1.921-1.158-3.05-1.158H706.715c-0.731,0-1.464,0.185-2.104,0.518l-30.805,16.168
			c-104.279,54.745-166.56,143.136-166.56,236.435V1830h9.15V1547.509z"/>
		<g>
			<rect x="614.605" y="1627.878" style="fill:#FFFFFF;" width="225.243" height="202.122"/>
			<path d="M530.517,1628.548L560.193,1830h9.242l-22.418-152.226l-2.532-17.142c0-0.03-4.147-28.18-4.147-28.18h377.621
				l-0.458,4.176c0,0.032-2.591,23.852-2.591,23.852L896.394,1830h9.212l11.224-102.938l0.245-2.347
				c0-0.033,2.471-22.602,2.471-22.602l0.335-3.021l7.716-70.697c0.153-1.313-0.274-2.595-1.129-3.568
				c-0.457-0.521-1.037-0.918-1.646-1.162c-0.55-0.244-1.16-0.363-1.77-0.363h-387.99c-0.305,0-0.579,0.03-0.855,0.09
				c-1.006,0.185-1.921,0.703-2.622,1.495c-0.823,0.977-1.22,2.258-1.068,3.509V1628.548z"/>
			<circle style="fill:#3B6574;" cx="727.232" cy="1590.179" r="195.825"/>
			<path d="M727.242,1389.793c-110.502,0-200.415,89.883-200.415,200.386c0,13.055,1.251,25.862,3.69,38.218
				c3.324,17.353,8.938,33.913,16.501,49.378c15.372,31.536,38.795,58.468,67.587,78.081
				c32.117,21.928,70.882,34.738,112.637,34.738c41.725,0,80.49-12.811,112.606-34.738c33.917-23.119,60.391-56.365,75.061-95.375
				c4.421-11.804,7.777-24.096,9.913-36.814c1.86-10.887,2.806-22.079,2.806-33.487
				C927.627,1479.676,837.743,1389.793,727.242,1389.793z M915.61,1623.303c-0.549,3.08-1.16,6.13-1.861,9.15
				c-10.338,45.779-37.179,85.367-73.901,112.239c-31.598,23.087-70.546,36.752-112.606,36.752
				c-42.089,0-81.038-13.665-112.637-36.752c-36.721-26.872-63.561-66.46-73.902-112.239c-0.701-3.021-1.311-6.07-1.86-9.15
				c-1.891-10.768-2.867-21.838-2.867-33.124c0-105.469,85.796-191.235,191.265-191.235c105.438,0,191.236,85.767,191.236,191.235
				C918.478,1601.465,917.5,1612.535,915.61,1623.303z"/>
			
				<ellipse transform="matrix(0.1891 -0.982 0.982 0.1891 -971.7792 2003.574)" style="fill:#BBD7E3;" cx="727.233" cy="1590.179" rx="112.627" ry="112.626"/>
			<path d="M727.242,1472.969c-64.629,0-117.212,52.579-117.212,117.21c0,11.497,1.678,22.601,4.789,33.124
				c0.427,1.525,0.914,3.05,1.433,4.575c0.519,1.555,1.068,3.08,1.678,4.575c16.988,43.796,59.597,74.937,109.312,74.937
				c49.716,0,92.294-31.141,109.282-74.937c0.611-1.495,1.159-3.021,1.677-4.575c0.52-1.525,1.006-3.05,1.464-4.575
				c3.081-10.523,4.758-21.627,4.758-33.124C844.422,1525.548,791.841,1472.969,727.242,1472.969z M828.502,1627.878
				c-0.579,1.525-1.19,3.05-1.831,4.575c-16.501,38.61-54.839,65.786-99.43,65.786s-82.959-27.176-99.46-65.786
				c-0.64-1.525-1.251-3.05-1.831-4.575c-0.549-1.495-1.067-3.021-1.586-4.575c-3.355-10.434-5.185-21.564-5.185-33.124
				c0-59.567,48.465-108.061,108.062-108.061c59.567,0,108.031,48.493,108.031,108.061c0,11.56-1.83,22.69-5.184,33.124
				C829.57,1624.857,829.05,1626.383,828.502,1627.878z"/>
		</g>
		<g>
			<path style="fill:#81BBCF;" d="M883.102,421.674c-23.883,0-43.244,19.36-43.244,43.244s19.36,43.244,43.244,43.244
				c23.882,0,43.242-19.36,43.242-43.244S906.983,421.674,883.102,421.674z"/>
			<path d="M883.102,417.1c-26.367,0-47.818,21.451-47.818,47.818c0,26.367,21.451,47.818,47.818,47.818
				c26.366,0,47.817-21.451,47.817-47.818C930.918,438.551,909.467,417.1,883.102,417.1z M883.102,503.586
				c-21.322,0-38.669-17.347-38.669-38.668c0-21.322,17.347-38.668,38.669-38.668c21.322,0,38.667,17.347,38.667,38.668
				C921.769,486.24,904.423,503.586,883.102,503.586z"/>
			<path d="M883.102,503.586c-2.527,0-4.575,2.048-4.575,4.575v360.213c0,2.527,2.048,4.575,4.575,4.575
				c2.527,0,4.575-2.048,4.575-4.575V508.162C887.677,505.634,885.629,503.586,883.102,503.586z"/>
		</g>
		<g>
			<path style="fill:#81BBCF;" d="M916.234,992.902h-209.41v304.724c-0.049,0.444-0.1,0.888-0.1,1.335
				c0,19.67,46.922,35.616,104.805,35.616c57.881,0,104.804-15.946,104.804-35.616c0-0.447-0.051-0.891-0.099-1.335V992.902z"/>
			<g>
				<path d="M916.333,1226.701c-2.527,0-4.575,2.05-4.575,4.575c0,14.682-41.163,31.039-100.229,31.039
					c-59.067,0-100.23-16.357-100.23-31.039c0-2.525-2.048-4.575-4.575-4.575c-2.527,0-4.575,2.05-4.575,4.575
					c0,26.104,56.355,40.189,109.38,40.189c53.023,0,109.378-14.085,109.378-40.189
					C920.908,1228.751,918.86,1226.701,916.333,1226.701z"/>
				<path d="M916.333,1162.282c-2.527,0-4.575,2.05-4.575,4.575c0,14.681-41.163,31.042-100.229,31.042
					c-59.067,0-100.23-16.361-100.23-31.042c0-2.525-2.048-4.575-4.575-4.575c-2.527,0-4.575,2.05-4.575,4.575
					c0,26.106,56.355,40.192,109.38,40.192c53.023,0,109.378-14.086,109.378-40.192
					C920.908,1164.332,918.86,1162.282,916.333,1162.282z"/>
				<path d="M916.333,1097.865c-2.527,0-4.575,2.05-4.575,4.575c0,14.682-41.163,31.04-100.229,31.04
					c-59.067,0-100.23-16.358-100.23-31.04c0-2.525-2.048-4.575-4.575-4.575c-2.527,0-4.575,2.05-4.575,4.575
					c0,26.104,56.355,40.189,109.38,40.189c53.023,0,109.378-14.085,109.378-40.189
					C920.908,1099.915,918.86,1097.865,916.333,1097.865z"/>
				<path d="M916.333,1033.447c-2.527,0-4.575,2.048-4.575,4.574c0,14.681-41.163,31.042-100.229,31.042
					c-59.067,0-100.23-16.361-100.23-31.042c0-2.526-2.048-4.574-4.575-4.574c-2.527,0-4.575,2.048-4.575,4.574
					c0,26.106,56.355,40.192,109.38,40.192c53.023,0,109.378-14.086,109.378-40.192
					C920.908,1035.495,918.86,1033.447,916.333,1033.447z"/>
			</g>
			<path d="M920.81,992.902c0-2.525-2.048-4.574-4.575-4.574H706.823c-2.527,0-4.575,2.049-4.575,4.574v304.48
				c-0.055,0.524-0.098,1.052-0.098,1.579c0,26.106,56.355,40.191,109.38,40.191c53.023,0,109.378-14.085,109.378-40.191
				c0-0.527-0.043-1.055-0.098-1.579V992.902z M811.529,1330.003c-59.067,0-100.23-16.361-100.23-31.042
				c0-0.26,0.036-0.516,0.071-0.847c0.018-0.16,0.027-0.324,0.027-0.488V997.479H911.66v300.147c0,0.164,0.016,0.402,0.034,0.563
				c0.028,0.256,0.064,0.512,0.064,0.771C911.758,1313.642,870.595,1330.003,811.529,1330.003z"/>
		</g>
		<g>
			<path style="fill:#FFFFFF;" d="M653.829,512.587c-46.039,10.467-91.429,85.502-122.553,171.538
				c-17.643,48.769-20.284,116.432-19.264,165.898c0.833,40.249,17.081,78.637,45.251,107.394l15.672,16.001
				c28.098,28.685,66.562,44.851,106.715,44.851h116.183c0,0,7.781,38.904,7.781,62.247c0,23.344,57.061,41.5,129.685,65.745
				c72.624,24.242,132.279,27.629,168.59,14.66c36.313-12.968,54.468-85.59,67.437-245.921
				c12.968-160.329-33.718-272.819-62.248-321.206C1078.547,545.406,699.866,502.121,653.829,512.587z"/>
			<path style="fill:#474E60;" d="M1145.836,684.125c0,0-15.416-10.82-77.663-13.414c-34.246-1.427-69.276,2.693-93.862,6.687
				c-18.866,3.065-32.311,19.941-31.011,39.009l13.525,198.498c1.848,27.131,22.147,49.405,48.994,53.744
				c27.484,4.441,61.651,9.942,85.696,13.732c46.687,7.356,71.462,0,71.462,0s9.777-129.921,6.547-173.108
				C1167.151,777.518,1145.836,684.125,1145.836,684.125z"/>
			<path d="M1161.685,977.992c-0.24,0.068-24.58,6.94-69.458-0.131c-24.041-3.788-58.2-9.289-85.678-13.728
				c-24.875-4.021-43.446-24.394-45.159-49.54l-13.525-198.496c-1.145-16.785,10.541-31.482,27.181-34.185
				c23.474-3.814,58.656-8.061,92.937-6.631c58.781,2.45,74.913,12.391,75.279,12.625c2.065,1.41,4.885,0.896,6.319-1.153
				c1.452-2.069,0.953-4.922-1.116-6.372c-0.674-0.474-17.236-11.621-80.101-14.24c-35.047-1.465-70.893,2.861-94.787,6.742
				c-21.331,3.466-36.308,22.311-34.841,43.838l13.525,198.494c2.004,29.417,23.728,53.246,52.829,57.951
				c27.49,4.443,61.664,9.945,85.714,13.733c15.865,2.502,29.249,3.339,40.07,3.339c21.347,0,32.708-3.265,33.405-3.473
				c2.418-0.718,3.795-3.256,3.082-5.675C1166.652,978.672,1164.12,977.29,1161.685,977.992z"/>
			<path style="fill:#32C4B0;" d="M1102.995,762.551c-1.313-3.165-4.286-5.33-7.701-5.61c-3.44-0.292-6.702,1.372-8.514,4.279
				l-53.871,86.423c-2.673,4.289-1.364,9.932,2.925,12.605c4.286,2.67,9.929,1.361,12.605-2.925l44.469-71.34l29.063,70.009
				c1.461,3.519,4.865,5.644,8.453,5.644c1.169,0,2.359-0.226,3.505-0.703c4.667-1.936,6.879-7.292,4.941-11.959L1102.995,762.551z"
				/>
			<path d="M887.696,526.596c-103.339-15.463-210.901-23.919-234.881-18.47c-42.803,9.73-89.845,74.944-125.841,174.442
				c-17.978,49.701-20.545,118.546-19.533,167.549c0.856,41.484,17.39,80.728,46.554,110.501l15.673,16
				c28.775,29.377,68.863,46.225,109.983,46.225h112.4c1.899,10.18,6.989,39.185,6.989,57.672c0,25.803,52.46,43.296,125.071,67.503
				l7.74,2.582c44.203,14.756,85.483,22.306,119.781,22.306c19.874-0.003,37.407-2.537,51.796-7.675
				c37.719-13.473,56.815-81.191,70.458-249.862c14.34-177.284-44.493-292.737-62.868-323.898
				C1093.319,561.453,963.502,537.94,887.696,526.596z M1164.767,914.631c-12.955,160.16-31.617,230.268-64.415,241.98
				c-37.33,13.338-97.688,7.982-165.603-14.69l-7.744-2.582c-63.755-21.258-118.814-39.614-118.814-58.823
				c0-23.523-7.549-61.538-7.871-63.145c-0.428-2.139-2.306-3.678-4.486-3.678H679.651c-38.676,0-76.381-15.846-103.447-43.478
				l-15.671-16.001c-27.53-28.102-43.136-65.138-43.945-104.285c-0.995-48.227,1.491-115.87,18.991-164.248
				c34.929-96.556,79.515-159.595,119.264-168.632c4.459-1.014,12.215-1.492,22.581-1.492c42.339,0,128.063,7.988,208.918,20.089
				c124.4,18.614,205.446,41.221,216.797,60.471C1121.166,626.694,1178.889,740.027,1164.767,914.631z"/>
		</g>
		<g>
			<circle style="fill:#BBD7E3;" cx="770.475" cy="852.483" r="129.897"/>
			<path d="M770.475,718.011c-74.148,0-134.471,60.324-134.471,134.471c0,74.148,60.324,134.473,134.471,134.473
				c74.148,0,134.472-60.324,134.472-134.473C904.947,778.335,844.623,718.011,770.475,718.011z M770.475,977.805
				c-69.102,0-125.321-56.22-125.321-125.322c0-69.102,56.22-125.321,125.321-125.321c69.103,0,125.322,56.219,125.322,125.321
				C895.797,921.585,839.578,977.805,770.475,977.805z"/>
			<path style="fill:#3E6573;" d="M770.475,809.271c-22.052,0-39.929,17.875-39.929,39.929c0,22.051,17.877,39.928,39.929,39.928
				c22.053,0,39.93-17.877,39.93-39.928C810.405,827.147,792.528,809.271,770.475,809.271z"/>
			<path d="M770.475,804.695c-24.54,0-44.503,19.965-44.503,44.505s19.963,44.503,44.503,44.503S814.98,873.74,814.98,849.2
				S795.015,804.695,770.475,804.695z M770.475,884.554c-19.495,0-35.354-15.859-35.354-35.354
				c0-19.495,15.859-35.355,35.354-35.355c19.494,0,35.355,15.86,35.355,35.355C805.83,868.694,789.969,884.554,770.475,884.554z"/>
			<g>
				<path style="fill:#81BBCF;" d="M770.475,370.444c-23.882,0-43.242,19.36-43.242,43.244c0,23.882,19.36,43.242,43.242,43.242
					c23.883,0,43.244-19.36,43.244-43.242C813.719,389.804,794.358,370.444,770.475,370.444z"/>
				<path d="M770.475,365.869c-26.368,0-47.819,21.451-47.819,47.818c0,26.366,21.451,47.817,47.819,47.817
					c26.367,0,47.818-21.451,47.818-47.817C818.294,387.32,796.842,365.869,770.475,365.869z M770.475,452.354
					c-21.322,0-38.669-17.345-38.669-38.667s17.347-38.668,38.669-38.668s38.669,17.347,38.669,38.668
					S791.797,452.354,770.475,452.354z"/>
				<path d="M770.475,452.354c-2.527,0-4.575,2.048-4.575,4.575v352.34c0,2.527,2.048,4.575,4.575,4.575s4.575-2.048,4.575-4.575
					V456.93C775.05,454.402,773.002,452.354,770.475,452.354z"/>
			</g>
		</g>
	</g>
	<g>
		<path style="fill:#FFFFFF;" d="M2256.419,1588.136c-30.622-138.472-97.781-212.923-141.732-326.076
			c-1.525-3.568-26.199-50.784-29.646-59.415c-0.824,0.429-1.646,0.854-2.472,1.283c-0.071,0.039-0.144,0.08-0.218,0.119
			l-1.024-3.16c0,0-14.354-0.057-52.541,16.489c-28.752,12.456-201.017,60.94-253.171,89.79
			c-22.384,12.382-35.203,140.56-37.854,169.841c-0.626,1.934-1.245,3.908-1.854,5.963c-1.861,5.734-4.637,13.939-8.054,24.249
			c-18.666,56.761-56.088,178.059-59.841,311.588l-0.763,11.193h621.163l-16.012-142.039
			C2272.402,1687.961,2268.408,1641.389,2256.419,1588.136z"/>
		<g>
			<path style="fill-rule:evenodd;clip-rule:evenodd;fill:#C37B7B;" d="M2168.568,663.351
				c-15.978-22.631-25.294-82.536-46.594-101.174c-67.895-57.244-154.424-69.225-154.424-69.225s-98.515-49.255-300.863,34.613
				c-57.244,22.631-93.186,57.243-109.162,81.207c-37.273,51.918,33.282,113.155,33.282,113.155s364.761,371.418,459.278,314.174
				c23.962-14.643,159.749-190.369,155.755-248.943C2203.182,745.889,2192.53,699.296,2168.568,663.351z"/>
			<path style="fill-rule:evenodd;clip-rule:evenodd;fill:#FFDDC0;" d="M1999.498,964.214c-2.996-7.98,22.631-25.294,27.957-47.926
				c6.656-26.625-9.32-57.244-19.969-65.231c-18.636-13.313-47.924-2.663-83.869-1.332c-27.956,1.332-62.566-3.994-77.212-21.299
				c-34.61-41.269-49.255-119.812-93.186-151.763c-35.944-25.293-89.194-26.625-109.162-19.968
				c-35.945,10.649-43.931,45.261-45.262,50.587c-11.982,47.924,9.316,154.424-6.657,197.024
				c-6.657,18.636-39.936,21.299-42.599,42.599c-2.663,17.308,17.305,26.625,25.29,50.587
				c14.646,46.593,19.972,114.488,25.297,137.119c13.312,58.575,51.919,57.243,89.191,54.581
				c31.951-2.663,70.556-1.332,70.556-1.332l22.634,13.312l14.643,22.196c0,0,2.466,14.826,2.65,74.138
				c16.111-7.759,31.668-16.802,49.015-21.564c10.672-2.931,21.659-4.56,32.353-7.476c10.359-2.824,20.572-6.154,30.741-9.598
				c21.431-7.255,42.503-15.458,63.945-22.687c19.799-6.679,39.573-14.002,60.009-18.446c15.61-3.396,32.332-6.267,46.113-14.731
				c-26.509-89.97-34.554-166.904-34.554-166.904S2015.258,1006.164,1999.498,964.214z"/>
			<path d="M1620.173,666.348c-2.014-1.51-4.882-1.109-6.401,0.916c-1.013,1.349-24.816,33.562-27.53,78.348
				c-2.189,36.124,0.911,68.953,3.646,97.918c0.607,6.443,1.194,12.638,1.674,18.367c1.21,28.978-7.734,40.277-15.664,46.882
				c-4.637,3.863-9.829,6.944-14.854,9.92c-11.682,6.932-23.763,14.095-22.735,29.701c0.078,11.805,8.308,21.66,16.269,31.194
				c4.242,5.082,8.251,9.883,10.914,14.765c7.481,13.717,11.422,43.367,11.461,43.665c0.301,2.303,2.267,3.982,4.53,3.982
				c0.196,0,0.397-0.012,0.599-0.038c2.505-0.328,4.271-2.625,3.943-5.129c-0.166-1.285-4.199-31.642-12.5-46.861
				c-3.095-5.674-7.584-11.051-11.924-16.248c-7.273-8.709-14.142-16.937-14.142-25.493c0-0.11-0.003-0.218-0.012-0.325
				c-0.686-9.614,6.142-14.15,18.264-21.341c5.085-3.015,10.849-6.431,16.043-10.761c9.546-7.954,20.325-21.311,18.94-54.483
				c-0.498-5.951-1.085-12.179-1.698-18.657c-2.704-28.634-5.77-61.088-3.622-96.504c2.544-41.953,25.49-73.106,25.723-73.416
				C1622.605,670.727,1622.195,667.861,1620.173,666.348z"/>
			<path d="M1764.047,1187.537c-16.79-5.877-34.831-5.215-57.667-4.375c-15.099,0.554-32.216,1.186-52.833,0.128
				c-33.073-1.225-43.865-21.323-54.286-63.017c-7.819-33.875-11.879-60.596-15.896-92.73c-0.313-2.508-2.601-4.27-5.108-3.97
				c-2.505,0.313-4.283,2.6-3.971,5.108c4.054,32.417,8.152,59.395,16.078,93.728c11.077,44.314,24.373,68.601,62.778,70.021
				c20.969,1.075,38.289,0.435,53.574-0.125c21.872-0.801,39.15-1.441,54.316,3.872c27.283,9.486,32.874,42.212,32.874,88.426
				c0,2.526,2.049,4.575,4.575,4.575c2.526,0,4.575-2.049,4.575-4.575C1803.057,1241.236,1798.329,1199.46,1764.047,1187.537z"/>
			<path d="M1731.545,1507.707c-1.129-0.703-2.499-0.855-3.69-0.488c-1.036,0.304-1.98,0.977-2.621,1.95
				c-31.232,49.991-51.058,191.787-63.013,320.831h9.394c11.926-127.978,31.353-267.941,61.396-315.979
				C1734.351,1511.886,1733.681,1509.047,1731.545,1507.707z"/>
			<path d="M2260.904,1587.129c-18.973-85.767-51.483-145.76-82.931-203.802c-19.551-36.112-39.802-73.444-56.639-116.874
				c-1.126-2.595-2.988-6.345-5.55-11.5c-15.523-31.141-56.761-113.949-62.465-219.112c-0.152-2.501-2.317-4.422-4.819-4.301
				c-2.532,0.122-4.453,2.287-4.331,4.819c3.661,67.438,21.657,125.75,38.399,167.568c9.79,24.552,19.185,43.43,25.011,55.111
				c2.409,4.819,4.33,8.662,5.277,10.89c17.02,43.799,37.393,81.403,57.096,117.762c31.11,57.462,63.317,116.874,82.014,201.452
				c11.773,52.306,15.83,98.759,15.89,99.336L2283.81,1830h9.18l-16.042-142.406
				C2276.917,1687.108,2272.798,1640.078,2260.904,1587.129z"/>
			<path d="M2012.842,848.044c-10.484-8.343-33.711-19.211-71.473,1.672c-2.21,1.223-3.011,4.006-1.787,6.218
				c1.225,2.211,4.013,3.011,6.22,1.789c24.537-13.575,46.325-14.465,61.346-2.518c15.435,12.279,21.293,36.322,14.583,59.81
				c-11.635,40.076-41.16,51.833-68.506,58.049c-2.467,0.56-4.01,3.011-3.449,5.474c0.482,2.124,2.367,3.563,4.459,3.563
				c0.333,0,0.676-0.035,1.016-0.113c28.197-6.409,62.232-19.523,75.272-64.439C2038.243,890.527,2031.139,862.596,2012.842,848.044
				z"/>
			<path d="M1981.1,895.102c-11.609,7.255-17.403,18.656-17.645,19.138c-1.129,2.255-0.214,4.995,2.037,6.127
				c0.658,0.334,1.361,0.489,2.05,0.489c1.674,0,3.285-0.921,4.093-2.515c0.047-0.096,4.95-9.628,14.314-15.481
				c2.142-1.338,2.794-4.161,1.456-6.304C1986.063,894.414,1983.241,893.763,1981.1,895.102z"/>
			<path d="M1708.188,1044.238c-23.286,5.763-52.809,7.541-81.007,4.893c-2.522-0.265-4.747,1.608-4.982,4.126
				c-0.238,2.517,1.611,4.747,4.125,4.982c8.822,0.831,17.775,1.24,26.648,1.24c20.469,0,40.499-2.175,57.414-6.36
				c2.451-0.607,3.949-3.085,3.342-5.539C1713.123,1045.128,1710.645,1043.621,1708.188,1044.238z"/>
			<path style="fill-rule:evenodd;clip-rule:evenodd;" d="M1656.037,1183.867c0,0,73.221,2.663,102.505,6.657
				c21.303,2.663,31.951,31.948,31.951,31.948s30.619-14.643,49.256-37.273c21.299-25.294,31.95-57.244,31.95-57.244
				s-23.962,21.299-71.887,35.944C1750.557,1177.211,1656.037,1183.867,1656.037,1183.867z"/>
			<path d="M1688.982,773.899c-1.284-0.758-31.96-18.367-71.047,2.569c-2.227,1.193-3.067,3.966-1.873,6.194
				c0.824,1.54,2.403,2.415,4.035,2.415c0.73,0,1.469-0.176,2.157-0.543c34.398-18.428,60.976-3.4,62.087-2.75
				c2.168,1.269,4.971,0.554,6.252-1.619C1691.88,777.99,1691.159,775.184,1688.982,773.899z"/>
			<path d="M1653.425,536.484c-68.869,20.087-105.845,61.497-111.054,91.472c-5.639,32.418,20.524,80.861,45.898,97.777
				c0.78,0.52,1.662,0.768,2.535,0.768c1.477,0,2.928-0.715,3.81-2.037c1.402-2.103,0.834-4.943-1.27-6.344
				c-22.66-15.108-46.959-59.85-41.961-88.598c4.741-27.267,39.495-65.264,104.603-84.254c2.424-0.708,3.818-3.247,3.112-5.673
				C1658.39,537.167,1655.828,535.777,1653.425,536.484z"/>
			<path d="M2008.997,510.668c-71.648-56.799-151.333-37.866-221.641-21.166c-39.456,9.376-76.718,18.23-109.371,13.564
				c-2.487-0.359-4.819,1.38-5.177,3.882c-0.357,2.501,1.382,4.818,3.884,5.175c34.36,4.916,72.456-4.137,112.779-13.719
				c71.615-17.013,145.667-34.607,213.842,19.432c0.841,0.667,1.844,0.99,2.839,0.99c1.35,0,2.687-0.594,3.589-1.733
				C2011.312,515.115,2010.978,512.238,2008.997,510.668z"/>
			<path d="M2090.799,536.816c-4.721-2.448-8.983-4.621-12.861-6.598c-25.592-13.046-33.314-16.982-45.381-34.534
				c-1.433-2.082-4.28-2.609-6.361-1.177c-2.082,1.432-2.609,4.28-1.18,6.362c13.385,19.463,23.018,24.375,48.767,37.501
				c3.86,1.967,8.104,4.131,12.77,6.55c26.75,14.161,43.456,31.623,51.168,53.63c6.103,14.641,7.646,31.176,5.007,53.616
				c-0.298,2.509,1.498,4.783,4.009,5.078c0.179,0.021,0.36,0.031,0.539,0.031c2.287,0,4.266-1.712,4.536-4.04
				c2.836-24.084,1.094-42.036-5.549-57.958C2137.848,571.244,2119.717,552.126,2090.799,536.816z"/>
			<path d="M2177.202,673.886c-2.267,1.111-3.207,3.853-2.094,6.121c62.761,128.136-5.475,208.94-55.263,267.903
				c-22.321,25.844-37.959,45.213-49.378,59.355c-10.196,12.629-18.31,22.675-21.017,24.289c-3.565,0-14.878-7.273-46.06-69.783
				l-1.132-2.267c-1.129-2.258-3.872-3.172-6.139-2.046c-2.261,1.132-3.176,3.878-2.047,6.139l1.129,2.258
				c26.401,52.928,42.292,74.841,54.399,74.841c0.241,0,0.479-0.009,0.718-0.023c5.079-0.179,9.931-6.187,27.266-27.658
				c11.378-14.096,26.962-33.396,49.217-59.163c51.448-60.927,121.911-144.369,56.521-277.869
				C2182.216,673.713,2179.479,672.775,2177.202,673.886z"/>
			<path d="M1705.588,584.346c-44.544,10.393-56.902,42.661-59.425,67.899c-0.253,2.514,1.581,4.757,4.096,5.008
				c0.154,0.015,0.31,0.023,0.461,0.023c2.32,0,4.311-1.76,4.546-4.119c3.24-32.39,20.87-52.544,52.4-59.899
				c2.461-0.575,3.991-3.035,3.417-5.496C1710.508,585.305,1708.051,583.776,1705.588,584.346z"/>
			<path d="M1737.699,629.512c-1.191-0.122-29.387-2.633-48.021,21.742c-1.533,2.007-1.152,4.879,0.855,6.413
				c0.828,0.635,1.805,0.941,2.775,0.941c1.376,0,2.737-0.618,3.637-1.796c15.479-20.241,38.87-18.291,39.841-18.194
				c2.505,0.24,4.757-1.584,5.007-4.097C1742.047,632.007,1740.213,629.764,1737.699,629.512z"/>
			<path d="M1910.825,841.229c-58.504,10.559-75.279-31.203-94.744-79.562c-15.432-38.333-31.384-77.973-70.516-93.257
				c-2.356-0.921-5.007,0.243-5.928,2.596c-0.917,2.354,0.244,5.007,2.598,5.926c35.45,13.847,50.652,51.622,65.357,88.154
				c17.233,42.819,34.991,86.943,86.022,86.943c5.826,0,12.093-0.577,18.836-1.794c2.487-0.45,4.137-2.83,3.69-5.315
				C1915.691,842.432,1913.303,840.792,1910.825,841.229z"/>
			<path style="fill-rule:evenodd;clip-rule:evenodd;" d="M1653.377,840.408c-10.651,0-19.971,10.649-19.971,23.962
				s7.988,25.293,19.971,23.962c11.979,0,19.968-10.65,19.968-23.962S1664.025,840.408,1653.377,840.408z"/>
		</g>
		<path d="M2080.261,1196.437c-26.262,6.303-247.676,81.29-297.116,102.664c-50.176,21.698-50.488,177.257-50.477,183.869
			c0.003,2.523,2.053,4.566,4.575,4.566c2.534-0.003,4.578-2.055,4.575-4.584c-0.068-43.361,7.872-159.416,44.96-175.452
			c46.769-20.222,265.562-94.476,294.728-101.943c5.534,3.947,19.089,32.859,29.621,59.872
			c-131.605,44.174-233.057,127.212-282.104,167.356c-9.856,8.068-19.316,15.81-24.996,19.774
			c3.589-23.703,13.665-95.926,6.005-112.573c-4.408-9.585-9.439-14.365-15.375-14.615c-10.985-0.578-19.357,14.434-30.057,33.297
			l-1.379,2.434c-1.251,2.197-0.479,4.988,1.716,6.236c2.192,1.251,4.986,0.482,6.236-1.715l1.386-2.439
			c7.253-12.787,16.263-28.675,21.597-28.675c0.873,0.036,3.652,0.802,7.565,9.302c5.695,12.379-1.519,74.916-7.759,113.932
			c-0.048,0.31-0.065,0.622-0.051,0.936c0.107,2.364,1.364,4.307,3.357,5.197c5.135,2.296,10.942-2.231,37.55-24.007
			c49.181-40.258,151.522-124.022,283.722-167.259c1.191-0.39,2.168-1.248,2.707-2.377s0.593-2.428,0.149-3.598
			C2093.503,1193.273,2083.874,1195.594,2080.261,1196.437z"/>
		<path d="M2046.916,1466.377c-2.466,1.084-60.91,27.337-107.193,100.302c-46.379,73.116-36.528,177.466-36.085,181.871
			c0.235,2.358,2.226,4.119,4.545,4.119c0.152,0,0.308-0.009,0.462-0.024c2.514-0.25,4.349-2.492,4.096-5.007
			c-0.105-1.048-9.954-105.647,34.709-176.057c44.704-70.475,102.567-96.569,103.146-96.825c2.312-1.02,3.362-3.718,2.344-6.029
			C2051.92,1466.409,2049.216,1465.361,2046.916,1466.377z"/>
		<path d="M1906.769,1773.789c-2.502,0.182-4.391,2.377-4.209,4.909l3.905,51.302h9.15l-3.935-52.002
			C1911.495,1775.496,1909.24,1773.604,1906.769,1773.789z"/>
		<path d="M2167.061,1438.334c-2.52,0.11-4.468,2.24-4.36,4.76s2.323,4.414,4.754,4.382c1.155-0.048,28.099-0.784,42.238,25.275
			c0.828,1.524,2.4,2.392,4.023,2.392c0.739,0,1.486-0.179,2.181-0.554c2.219-1.204,3.044-3.982,1.838-6.204
			C2200.811,1437.199,2168.419,1438.248,2167.061,1438.334z"/>
	</g>
	<g>
		<path style="fill:#E24949;" d="M1315.065,391.601c-5.318,15.425-10.179,30.342-13.499,44.039h-0.414
			c-3.196-13.798-7.586-28.244-12.677-44.228l-18.416-58.441h-16.637l38.819,118.538h16.89l42.346-118.538h-16.367L1315.065,391.601
			z"/>
	</g>
	<g>
		<path style="fill:#E24949;" d="M1415.369,400.24c-16.36-6.322-23.571-11.752-23.571-22.756c0-8.078,6.15-17.727,22.432-17.727
			c10.675,0,18.606,3.385,22.386,5.628l4.271-12.55c-5.171-2.938-14.115-5.729-26.151-5.729c-23.087,0-38.423,13.693-38.423,32.146
			c0,16.586,11.998,26.762,31.346,33.626c15.992,5.987,22.42,12.463,22.42,23.453c0,12.006-9.207,20.183-24.865,20.183
			c-10.518,0-20.51-3.398-27.352-7.68l-4.023,12.771c6.326,4.273,18.823,7.733,30.285,7.733c28.084,0,41.481-15.997,41.481-34.18
			C1445.604,417.777,1435.478,408.128,1415.369,400.24z"/>
	</g>
</g>
</svg>
