<svg width="279" height="50" viewBox="0 0 279 50" fill="none" xmlns="http://www.w3.org/2000/svg">
<path d="M34.4571 33.56C34.9691 34.872 35.4651 35.96 35.9451 36.824C36.4251 37.688 37.1131 38.12 38.0091 38.12C38.3291 38.12 38.5211 38.184 38.5851 38.312C38.6811 38.408 38.7291 38.584 38.7291 38.84V40.28C38.7291 40.76 38.4891 41 38.0091 41H23.2731C22.7931 41 22.5531 40.76 22.5531 40.28V38.84C22.5531 38.584 22.5851 38.408 22.6491 38.312C22.7451 38.184 22.9531 38.12 23.2731 38.12C24.1371 38.12 24.9691 37.8 25.7691 37.16C26.6011 36.52 27.0171 35.736 27.0171 34.808C27.0171 34.584 26.9851 34.376 26.9211 34.184C26.8891 33.992 26.8411 33.784 26.7771 33.56L25.2891 29.48H12.1371L10.6971 33.56C10.6331 33.784 10.5851 34.008 10.5531 34.232C10.5211 34.424 10.5051 34.6 10.5051 34.76C10.5051 35.784 10.9211 36.6 11.7531 37.208C12.5851 37.816 13.4171 38.12 14.2491 38.12C14.6011 38.12 14.8091 38.184 14.8731 38.312C14.9371 38.408 14.9691 38.584 14.9691 38.84V40.28C14.9691 40.76 14.7291 41 14.2491 41H2.29706C1.81706 41 1.57706 40.76 1.57706 40.28V38.84C1.57706 38.584 1.60906 38.408 1.67306 38.312C1.76906 38.184 1.97706 38.12 2.29706 38.12C3.25706 38.12 3.97706 37.672 4.45706 36.776C4.96906 35.88 5.44906 34.808 5.89706 33.56L16.2171 5.624C16.3451 5.208 16.6171 5 17.0331 5H22.8411C23.2571 5 23.5291 5.192 23.6571 5.576L34.4571 33.56ZM13.6251 25.304H23.7531L18.5691 11.288L13.6251 25.304ZM55.1769 38.12C55.6569 38.12 55.8969 38.36 55.8969 38.84V40.28C55.8969 40.76 55.6249 41 55.0809 41H41.4969C40.9529 41 40.6809 40.76 40.6809 40.28V38.84C40.6809 38.36 40.9209 38.12 41.4009 38.12H41.4969C42.6809 38.12 43.5449 37.688 44.0889 36.824C44.6649 35.928 44.9529 34.84 44.9529 33.56V15.56C44.9529 14.664 44.8889 13.816 44.7609 13.016C44.6649 12.216 44.4249 11.544 44.0409 11C43.6569 10.424 43.0169 10.088 42.1209 9.992C41.7369 9.96 41.5449 9.752 41.5449 9.368V7.736C41.5449 7.544 41.6089 7.416 41.7369 7.352C41.8649 7.288 42.0409 7.208 42.2649 7.112C44.5369 6.28 46.3449 5.512 47.6889 4.808C49.0649 4.072 50.2009 3.368 51.0969 2.696C51.1609 2.632 51.2249 2.6 51.2889 2.6H51.4329C51.4969 2.6 51.5289 2.632 51.5289 2.696V33.512C51.5289 34.792 51.8169 35.88 52.3929 36.776C52.9689 37.672 53.8489 38.12 55.0329 38.12H55.1769ZM82.6112 31.304C82.6112 32.136 82.6592 32.968 82.7552 33.8C82.8832 34.6 83.1392 35.288 83.5232 35.864C83.9392 36.408 84.5792 36.728 85.4432 36.824C85.6992 36.856 85.8432 36.936 85.8752 37.064C85.9392 37.16 85.9712 37.288 85.9712 37.448V39.032C85.9712 39.48 85.7472 39.704 85.2992 39.704C83.7312 39.704 82.4192 39.8 81.3632 39.992C80.3392 40.152 79.4432 40.376 78.6752 40.664C77.9392 40.92 77.2032 41.208 76.4672 41.528C76.3392 41.592 76.2112 41.624 76.0832 41.624H75.9872C75.9232 41.624 75.8912 41.576 75.8912 41.48C75.8912 41.384 75.9392 40.904 76.0352 40.04C76.1632 39.144 76.3712 37.608 76.6592 35.432C76.2112 36.328 75.5872 37.256 74.7872 38.216C73.9872 39.176 73.0112 39.992 71.8592 40.664C70.7392 41.304 69.4432 41.624 67.9712 41.624C66.2432 41.624 64.8352 41.368 63.7472 40.856C62.6912 40.312 61.8752 39.608 61.2992 38.744C60.7232 37.848 60.3232 36.856 60.0992 35.768C59.9072 34.648 59.8112 33.512 59.8112 32.36V24.44C59.8112 23.128 59.5072 22.04 58.8992 21.176C58.3232 20.312 57.4432 19.88 56.2592 19.88H56.0672C55.5872 19.88 55.3472 19.64 55.3472 19.16V17.72C55.3472 17.24 55.5872 17 56.0672 17H65.8112C66.2912 17 66.5312 17.24 66.5312 17.72V32.648C66.5312 33.512 66.6112 34.312 66.7712 35.048C66.9312 35.752 67.2512 36.328 67.7312 36.776C68.2432 37.192 68.9952 37.4 69.9872 37.4C70.7872 37.4 71.5872 37.208 72.3872 36.824C73.1872 36.408 73.8912 35.896 74.4992 35.288C75.1392 34.648 75.5872 33.992 75.8432 33.32V24.44C75.8432 23.128 75.5392 22.04 74.9312 21.176C74.3552 20.312 73.4912 19.88 72.3392 19.88H72.2432C71.7632 19.88 71.5232 19.64 71.5232 19.16V17.72C71.5232 17.24 71.7632 17 72.2432 17H81.8912C82.3712 17 82.6112 17.24 82.6112 17.72V31.304ZM135.311 38.12C135.791 38.12 136.031 38.36 136.031 38.84V40.28C136.031 40.76 135.791 41 135.311 41H121.775C121.295 41 121.055 40.76 121.055 40.28V38.84C121.055 38.36 121.295 38.12 121.775 38.12H122.015C123.039 38.12 123.711 37.752 124.031 37.016C124.351 36.248 124.511 35.096 124.511 33.56V25.352C124.511 24.488 124.431 23.704 124.271 23C124.143 22.264 123.823 21.688 123.311 21.272C122.831 20.824 122.079 20.6 121.055 20.6C119.679 20.6 118.463 21.032 117.407 21.896C116.383 22.76 115.519 23.848 114.815 25.16V33.56C114.815 35.32 115.087 36.52 115.631 37.16C116.207 37.8 116.959 38.12 117.887 38.12H118.271C118.751 38.12 118.991 38.36 118.991 38.84V40.28C118.991 40.76 118.751 41 118.271 41H105.215C104.735 41 104.495 40.76 104.495 40.28V38.84C104.495 38.36 104.735 38.12 105.215 38.12H105.551C106.223 38.12 106.815 37.8 107.327 37.16C107.839 36.52 108.095 35.32 108.095 33.56V25.352C108.095 23.816 107.887 22.648 107.471 21.848C107.087 21.016 106.143 20.6 104.639 20.6C103.839 20.6 103.039 20.808 102.239 21.224C101.439 21.608 100.735 22.12 100.127 22.76C99.5194 23.368 99.0714 24.024 98.7834 24.728V33.56C98.7834 34.84 99.0554 35.928 99.5994 36.824C100.175 37.688 100.927 38.12 101.855 38.12H101.951C102.431 38.12 102.671 38.36 102.671 38.84V40.28C102.671 40.76 102.431 41 101.951 41H88.4634C87.9834 41 87.7434 40.76 87.7434 40.28V38.84C87.7434 38.36 87.9834 38.12 88.4634 38.12H88.5594C89.7434 38.12 90.6234 37.688 91.1994 36.824C91.7754 35.928 92.0634 34.84 92.0634 33.56V27.512C92.0634 26.648 91.9994 25.816 91.8714 25.016C91.7754 24.216 91.5194 23.544 91.1034 23C90.7194 22.424 90.0794 22.088 89.1834 21.992C88.8314 21.96 88.6554 21.752 88.6554 21.368V19.736C88.6554 19.416 88.8794 19.208 89.3274 19.112C91.6314 18.76 93.5994 18.216 95.2314 17.48C96.8954 16.744 98.0474 16.152 98.6874 15.704C98.8474 15.576 98.9754 15.512 99.0714 15.512H99.1194C99.1834 15.512 99.2154 15.544 99.2154 15.608C99.2154 15.672 99.1994 15.8 99.1674 15.992L98.3514 21.896C98.7994 21.16 99.3914 20.376 100.127 19.544C100.863 18.68 101.775 17.944 102.863 17.336C103.951 16.696 105.215 16.376 106.655 16.376C109.023 16.376 110.783 16.824 111.935 17.72C113.087 18.584 113.871 19.704 114.287 21.08C115.375 19.672 116.639 18.536 118.079 17.672C119.551 16.808 121.231 16.376 123.119 16.376C124.847 16.376 126.239 16.648 127.295 17.192C128.383 17.704 129.215 18.408 129.791 19.304C130.367 20.168 130.751 21.16 130.943 22.28C131.167 23.368 131.279 24.488 131.279 25.64V33.56C131.279 34.84 131.567 35.928 132.143 36.824C132.751 37.688 133.631 38.12 134.783 38.12H135.311ZM165.253 25.352V33.56C165.253 35.32 165.525 36.52 166.069 37.16C166.645 37.8 167.397 38.12 168.325 38.12H168.709C169.189 38.12 169.429 38.36 169.429 38.84V40.28C169.429 40.76 169.189 41 168.709 41H155.941C155.461 41 155.221 40.76 155.221 40.28V38.84C155.221 38.36 155.461 38.12 155.941 38.12H156.277C156.949 38.12 157.493 37.8 157.909 37.16C158.325 36.52 158.533 35.32 158.533 33.56V25.352C158.533 23.816 158.293 22.648 157.813 21.848C157.333 21.016 156.421 20.6 155.077 20.6C154.277 20.6 153.477 20.808 152.677 21.224C151.877 21.608 151.173 22.12 150.565 22.76C149.957 23.368 149.509 24.024 149.221 24.728V33.56C149.221 34.84 149.493 35.928 150.037 36.824C150.613 37.688 151.365 38.12 152.293 38.12H152.389C152.869 38.12 153.109 38.36 153.109 38.84V40.28C153.109 40.76 152.869 41 152.389 41H138.901C138.421 41 138.181 40.76 138.181 40.28V38.84C138.181 38.36 138.421 38.12 138.901 38.12H138.997C140.181 38.12 141.061 37.688 141.637 36.824C142.213 35.928 142.501 34.84 142.501 33.56V27.512C142.501 26.648 142.437 25.816 142.309 25.016C142.213 24.216 141.957 23.544 141.541 23C141.157 22.424 140.517 22.088 139.621 21.992C139.269 21.96 139.093 21.752 139.093 21.368V19.736C139.093 19.416 139.317 19.208 139.765 19.112C142.069 18.76 144.037 18.216 145.669 17.48C147.333 16.744 148.485 16.152 149.125 15.704C149.285 15.576 149.413 15.512 149.509 15.512H149.557C149.621 15.512 149.653 15.544 149.653 15.608C149.653 15.672 149.637 15.8 149.605 15.992L148.789 21.896C149.237 21.16 149.829 20.376 150.565 19.544C151.301 18.68 152.213 17.944 153.301 17.336C154.389 16.696 155.653 16.376 157.093 16.376C158.821 16.376 160.229 16.632 161.317 17.144C162.405 17.656 163.221 18.344 163.765 19.208C164.341 20.072 164.725 21.032 164.917 22.088C165.141 23.144 165.253 24.232 165.253 25.352ZM185.818 38.12C186.298 38.12 186.538 38.36 186.538 38.84V40.28C186.538 40.76 186.266 41 185.722 41H172.138C171.594 41 171.322 40.76 171.322 40.28V38.84C171.322 38.36 171.562 38.12 172.042 38.12H172.138C173.322 38.12 174.186 37.688 174.73 36.824C175.306 35.928 175.594 34.84 175.594 33.56V28.472C175.594 27.736 175.53 27 175.402 26.264C175.306 25.528 175.066 24.888 174.682 24.344C174.298 23.8 173.658 23.48 172.762 23.384C172.378 23.352 172.186 23.144 172.186 22.76V21.128C172.186 20.936 172.25 20.808 172.378 20.744C172.506 20.648 172.682 20.568 172.906 20.504C175.434 19.672 177.37 18.824 178.714 17.96C180.09 17.064 181.098 16.28 181.738 15.608C181.802 15.544 181.866 15.512 181.93 15.512H182.074C182.138 15.512 182.17 15.544 182.17 15.608V33.512C182.17 34.792 182.458 35.88 183.034 36.776C183.61 37.672 184.49 38.12 185.674 38.12H185.818ZM178.954 5.48C179.786 5.48 180.602 5.88 181.402 6.68C182.202 7.48 182.602 8.28 182.602 9.08C182.602 9.88 182.202 10.68 181.402 11.48C180.602 12.28 179.786 12.68 178.954 12.68C178.186 12.68 177.386 12.28 176.554 11.48C175.754 10.712 175.354 9.912 175.354 9.08C175.354 8.28 175.754 7.48 176.554 6.68C177.354 5.88 178.154 5.48 178.954 5.48ZM219.882 30.728C220.17 30.856 220.314 31.048 220.314 31.304C220.314 31.336 220.298 31.384 220.266 31.448C220.266 31.48 220.234 31.576 220.17 31.736L215.658 41.24C215.53 41.528 215.338 41.672 215.082 41.672C215.018 41.672 214.938 41.64 214.842 41.576C214.746 41.544 214.602 41.432 214.41 41.24C214.25 41.08 213.93 41 213.45 41H189.402C188.922 41 188.682 40.76 188.682 40.28V38.84C188.682 38.36 188.922 38.12 189.402 38.12C191.77 38.12 192.954 36.6 192.954 33.56V12.488C192.954 9.448 191.77 7.928 189.402 7.928C188.922 7.928 188.682 7.688 188.682 7.208V5.768C188.682 5.256 188.922 5 189.402 5H203.946C204.554 5 204.858 5.256 204.858 5.768V7.208C204.858 7.688 204.57 7.928 203.994 7.928H200.586V33.032C200.586 36.072 201.69 37.592 203.898 37.592H205.77C208.106 37.592 210.25 37.096 212.202 36.104C214.154 35.08 215.818 33.176 217.194 30.392L217.338 30.104C217.498 29.816 217.69 29.672 217.914 29.672C218.074 29.672 218.218 29.72 218.346 29.816L219.882 30.728ZM236.021 38.12C236.501 38.12 236.741 38.36 236.741 38.84V40.28C236.741 40.76 236.469 41 235.925 41H222.341C221.797 41 221.525 40.76 221.525 40.28V38.84C221.525 38.36 221.765 38.12 222.245 38.12H222.341C223.525 38.12 224.389 37.688 224.933 36.824C225.509 35.928 225.797 34.84 225.797 33.56V28.472C225.797 27.736 225.733 27 225.605 26.264C225.509 25.528 225.269 24.888 224.885 24.344C224.501 23.8 223.861 23.48 222.965 23.384C222.581 23.352 222.389 23.144 222.389 22.76V21.128C222.389 20.936 222.453 20.808 222.581 20.744C222.709 20.648 222.885 20.568 223.109 20.504C225.637 19.672 227.573 18.824 228.917 17.96C230.293 17.064 231.301 16.28 231.941 15.608C232.005 15.544 232.069 15.512 232.133 15.512H232.277C232.341 15.512 232.373 15.544 232.373 15.608V33.512C232.373 34.792 232.661 35.88 233.237 36.776C233.813 37.672 234.693 38.12 235.877 38.12H236.021ZM229.157 5.48C229.989 5.48 230.805 5.88 231.605 6.68C232.405 7.48 232.805 8.28 232.805 9.08C232.805 9.88 232.405 10.68 231.605 11.48C230.805 12.28 229.989 12.68 229.157 12.68C228.389 12.68 227.589 12.28 226.757 11.48C225.957 10.712 225.557 9.912 225.557 9.08C225.557 8.28 225.957 7.48 226.757 6.68C227.557 5.88 228.357 5.48 229.157 5.48ZM243.474 16.616C243.474 15.176 243.65 13.656 244.002 12.056C244.354 10.424 244.93 8.904 245.73 7.496C246.562 6.056 247.666 4.888 249.042 3.992C250.45 3.064 252.21 2.6 254.322 2.6C256.882 2.6 258.77 3.096 259.986 4.088C261.234 5.048 261.858 6.248 261.858 7.688C261.858 8.52 261.698 9.32 261.378 10.088C261.282 10.312 261.138 10.504 260.946 10.664C260.786 10.824 260.53 10.936 260.178 11C259.602 11.128 258.914 11.288 258.114 11.48C257.346 11.64 256.642 11.784 256.002 11.912C255.394 12.04 255.042 12.104 254.946 12.104C254.754 12.104 254.658 11.96 254.658 11.672C254.658 11.512 254.706 11.336 254.802 11.144C255.41 9.928 255.714 8.872 255.714 7.976C255.714 7.08 255.474 6.408 254.994 5.96C254.546 5.48 254.034 5.24 253.458 5.24C252.69 5.24 252.018 5.592 251.442 6.296C250.834 7 250.418 7.976 250.194 9.224C250.002 10.472 249.906 12.008 249.906 13.832V17H256.338C256.818 17 257.058 17.24 257.058 17.72V19.784C257.058 20.264 256.818 20.504 256.338 20.504H249.906V33.56C249.906 34.84 250.194 35.928 250.77 36.824C251.378 37.688 252.274 38.12 253.458 38.12C253.938 38.12 254.178 38.36 254.178 38.84V40.28C254.178 40.76 253.938 41 253.458 41H239.922C239.442 41 239.202 40.76 239.202 40.28V38.84C239.202 38.36 239.442 38.12 239.922 38.12C241.106 38.12 241.986 37.688 242.562 36.824C243.138 35.928 243.426 34.84 243.426 33.56V25.352C243.426 24.488 243.378 23.64 243.282 22.808C243.186 21.944 242.882 21.24 242.37 20.696C241.89 20.152 241.074 19.88 239.922 19.88C239.442 19.88 239.202 19.64 239.202 19.16V17.72C239.202 17.24 239.442 17 239.922 17H243.474V16.616ZM277.079 37.544C277.175 37.672 277.223 37.816 277.223 37.976C277.223 38.168 277.095 38.344 276.839 38.504L275.399 39.416C274.535 39.96 273.495 40.472 272.279 40.952C271.063 41.4 269.847 41.624 268.631 41.624C267.671 41.624 266.759 41.4 265.895 40.952C265.063 40.504 264.391 39.752 263.879 38.696C263.367 37.608 263.111 36.12 263.111 34.232V25.352C263.111 24.488 263.063 23.64 262.967 22.808C262.871 21.944 262.567 21.24 262.055 20.696C261.575 20.152 260.759 19.88 259.607 19.88C259.127 19.88 258.887 19.64 258.887 19.16V17.72C258.887 17.24 259.127 17 259.607 17H263.111V13.784C263.111 13.368 263.255 13.08 263.543 12.92C264.247 12.536 265.175 12.008 266.327 11.336C267.479 10.632 268.503 9.832 269.399 8.936C269.463 8.872 269.543 8.84 269.639 8.84H269.735C269.799 8.84 269.831 8.888 269.831 8.984V17H276.263C276.743 17 276.983 17.24 276.983 17.72V19.784C276.983 20.264 276.743 20.504 276.263 20.504H269.831V34.232C269.831 35.48 270.023 36.344 270.407 36.824C270.791 37.272 271.271 37.496 271.847 37.496C272.391 37.496 272.967 37.352 273.575 37.064C274.183 36.744 274.743 36.424 275.255 36.104C275.479 35.976 275.655 35.912 275.783 35.912C275.975 35.912 276.151 36.04 276.311 36.296L277.079 37.544Z" fill="black"/>
</svg>
